<?xml version="1.0" encoding="UTF-8"?>
<svg width="40px" height="40px" viewBox="0 0 40 40" version="1.1" xmlns="http://www.w3.org/2000/svg" xmlns:xlink="http://www.w3.org/1999/xlink">
    <!-- Generator: Sketch 58 (84663) - https://sketch.com -->
    <title>Path</title>
    <desc>Created with Sketch.</desc>
    <g id="Page-1" stroke="none" stroke-width="1" fill="none" fill-rule="evenodd">
        <g id="woodland_hotel" transform="translate(-1500.000000, -37.000000)" fill="#FFFFFF" fill-rule="nonzero">
            <path d="M1540,57.1217039 C1540,46.0060852 1531.04839,37 1520,37 C1508.95161,37 1500,46.0060852 1500,57.1217039 C1500,67.1647059 1507.31371,75.4892495 1516.875,77 L1516.875,62.9383367 L1511.79435,62.9383367 L1511.79435,57.1217039 L1516.875,57.1217039 L1516.875,52.6884381 C1516.875,47.6458418 1519.85887,44.8604462 1524.42903,44.8604462 C1526.61774,44.8604462 1528.90645,45.253144 1528.90645,45.253144 L1528.90645,50.2024341 L1526.38387,50.2024341 C1523.9,50.2024341 1523.125,51.7537525 1523.125,53.3448276 L1523.125,57.1217039 L1528.67177,57.1217039 L1527.78468,62.9383367 L1523.125,62.9383367 L1523.125,77 C1532.68629,75.4892495 1540,67.1647059 1540,57.1217039 Z" id="Path"></path>
        </g>
    </g>
</svg>