<?xml version="1.0" encoding="UTF-8"?>
<svg width="103px" height="104px" viewBox="0 0 103 104" version="1.1" xmlns="http://www.w3.org/2000/svg" xmlns:xlink="http://www.w3.org/1999/xlink">
    <!-- Generator: Sketch 58 (84663) - https://sketch.com -->
    <title>001-tour-guide</title>
    <desc>Created with Sketch.</desc>
    <g id="Page-1" stroke="none" stroke-width="1" fill="none" fill-rule="evenodd">
        <g id="woodland_outdoor" transform="translate(-1068.000000, -3282.000000)" fill="#B9C4BD" fill-rule="nonzero">
            <g id="s4" transform="translate(381.000000, 3219.000000)">
                <g id="001-tour-guide" transform="translate(687.000000, 63.000000)">
                    <path d="M80.6168444,91.242125 C79.9802656,90.6882031 79.0131477,90.753 78.4561923,91.3861406 L72.1432825,98.5694531 C71.4746501,99.3309688 70.5465273,99.7691094 69.5302061,99.8032344 C68.5110268,99.8393906 67.557996,99.4627969 66.8391397,98.7484063 L61.9737423,93.9097656 L61.9737423,90.7099375 C61.9737423,89.8685938 61.2883687,89.1865 60.4425233,89.1865 C59.5966779,89.1865 58.9113043,89.8685938 58.9113043,90.7099375 L58.9113043,94.5329531 L58.9113043,94.5485938 L58.9113043,102.476562 C58.9113043,103.317906 59.5966779,104 60.4425233,104 C61.2883687,104 61.9737423,103.317906 61.9737423,102.476562 L61.9737423,98.2178438 L64.6744044,100.903563 C65.927554,102.149125 67.6423152,102.852141 69.4095461,102.852141 C71.3298989,102.852141 73.1859405,102.013844 74.4490942,100.574703 L80.7617998,93.3917969 C81.318551,92.75825 81.2534232,91.7958438 80.6168444,91.242125 L80.6168444,91.242125 Z M17.0247056,89.1865 C16.1788603,89.1865 15.4934866,89.8685938 15.4934866,90.7099375 L15.4934866,102.476562 C15.4934866,103.317906 16.1788603,104 17.0247056,104 C17.870551,104 18.5559247,103.317906 18.5559247,102.476562 L18.5559247,90.7099375 C18.5559247,89.8685938 17.8703469,89.1865 17.0247056,89.1865 Z M101.82627,24.1519687 L91.5628147,15.855125 C90.8529415,15.2815 89.8992983,15.16775 89.0732567,15.5589687 C88.2474192,15.9499844 87.7343588,16.7582187 87.7343588,17.6682187 L87.7343588,37.2496719 C87.7343588,37.2525156 87.7349713,37.2551562 87.7349713,37.258 L87.7349713,61.9673437 L72.3174331,79.4616875 L67.4332527,70.3891094 C65.1021249,66.0558437 60.7993994,62.9933281 55.922773,62.1966719 C53.9117721,61.8682187 49.2178712,61.1046719 47.5263845,60.8278125 C46.2622101,60.6208281 45.3442953,59.5462969 45.3442953,58.2725 L45.3442953,56.4722031 C46.5374212,55.7236875 47.6576611,54.8417188 48.6792904,53.8244688 C52.2690803,50.2506875 54.2459861,45.5010156 54.2459861,40.4503125 L54.2459861,39.788125 L54.8360159,39.788125 C57.8655837,39.8019375 60.4423191,37.2387031 60.4423191,34.2103125 C60.4423191,32.6035938 59.7330585,31.1102188 58.5828067,30.0726563 C59.4729554,28.8094219 59.7253003,27.1494844 59.218773,25.6920625 C58.7814569,24.4341094 57.829447,23.4028438 56.6069217,22.8629375 C56.4462458,22.7918438 56.2839366,22.7235938 56.1222398,22.654125 L56.1222398,11.6878125 C56.1222398,5.24326563 50.8521923,0 44.3747275,0 L26.104222,0 C19.6267572,0 14.3567096,5.24326563 14.3567096,11.6878125 L14.3567096,22.654125 C14.1954212,22.7235938 14.0337245,22.7918438 13.8730486,22.8627344 C12.6503191,23.4028438 11.6983092,24.4341094 11.2609931,25.6922656 C10.7479326,27.1685781 10.9998692,28.8029219 11.8941011,30.0744844 C10.7448702,31.1112344 10.0366303,32.6035938 10.0366303,34.2103125 C10.0366303,37.2305781 12.5837621,39.8053906 15.6449752,39.788125 L16.235005,39.788125 L16.235005,40.4503125 C16.235005,47.1873594 19.7931497,53.1119063 25.1366957,56.4634688 L25.1366957,58.5832813 C25.1366957,59.7536875 24.3382161,60.7674844 23.1959267,61.0488125 L10.4806838,64.1688125 C4.309667,65.6831094 0,71.1569219 0,77.48 L0,102.476562 C0,103.317906 0.685373637,104 1.53121903,104 C2.37706442,104 3.06243806,103.317906 3.06243806,102.476562 L3.06243806,77.48 C3.06243806,72.5621406 6.41437859,68.3048438 11.2138315,67.127125 L21.0630406,64.7105469 C24.1081249,69.5690937 29.435338,72.5408125 35.2398831,72.5408125 C41.2626779,72.5408125 46.6995263,69.3986719 49.6892825,64.2679375 L55.4270664,65.2033281 C59.3696492,65.8474375 62.8485788,68.3235312 64.7334073,71.8272344 L69.6755699,81.0072656 C70.1355481,81.8636406 70.98956,82.441125 71.9597403,82.5520312 C72.931554,82.6629375 73.8956095,82.2924375 74.5395382,81.5615938 L85.0263469,69.662125 L91.6873538,76.2917188 C91.6936829,76.2978125 91.7004202,76.3030938 91.7067493,76.3091875 L83.1678553,86.0252656 C82.6111041,86.6586094 82.6762319,87.6210156 83.3128107,88.1749375 C83.9471437,88.7268281 84.9148741,88.6662969 85.4734628,88.0309219 L99.546999,72.0173594 C102.427528,68.7665469 101.92243,63.5677656 98.549665,60.8852969 C96.2838692,59.0831719 93.316775,58.7396875 90.7972052,59.7500313 L90.7972052,37.9742188 L101.82627,29.0586563 C102.572075,28.4555781 103,27.5614219 103,26.6051094 C103,25.649 102.572075,24.7548438 101.82627,24.1519687 Z M57.3798811,34.2103125 C57.3798811,35.5834375 56.2171754,36.7481563 54.8360159,36.7412806 L54.2459861,36.7412806 L54.2459861,32.118125 C54.8272369,32.1595625 55.4054252,32.0961875 55.9562557,31.9369375 C56.8116967,32.3567969 57.3798811,33.2387656 57.3798811,34.2103125 L57.3798811,34.2103125 Z M16.235005,36.7412824 L15.6449752,36.7412824 C14.2558533,36.7483594 13.0990684,35.5852656 13.0990684,34.2103125 C13.0990684,33.2395781 13.6658236,32.3592344 14.5190188,31.9399844 C15.0700535,32.0992344 15.6574291,32.1640312 16.2348008,32.1217812 L16.2348008,36.7412824 L16.235005,36.7412824 Z M16.6141348,28.9351562 C15.7368484,29.3221094 14.7207314,28.9434844 14.264224,28.0970625 C13.783217,27.2053437 14.1866422,26.0580937 15.1155818,25.6477812 C23.5307532,21.9314062 32.8032032,20.6200312 41.9331477,21.8560469 C42.7696016,21.968375 43.5427651,21.3856094 43.6566878,20.5519844 C43.7708147,19.7183594 43.1838474,18.9505469 42.3457602,18.837 C33.9195639,17.69625 25.3776075,18.6005625 17.4189435,21.4487812 L17.4189435,11.6878125 C17.4189435,6.92310937 21.3149772,3.046875 26.1040178,3.046875 L44.3747275,3.046875 C49.1637681,3.046875 53.0598018,6.92310937 53.0598018,11.6878125 L53.0598018,21.4481719 C51.8877047,21.0289219 50.7013162,20.6505 49.5081903,20.3165625 C48.6950109,20.0890625 47.848553,20.5605156 47.6194827,21.370375 C47.3904123,22.1802344 47.8646819,23.0215781 48.6786779,23.2494844 C50.9532527,23.8862812 53.2025114,24.6930937 55.3641843,25.6475781 C56.2853657,26.0544375 56.6912408,27.2027031 56.2188087,28.0907656 C55.7704678,28.9333281 54.7641506,29.3310469 53.8654272,28.9349531 C42.4388583,23.9007031 28.1928048,23.8277812 16.6141348,28.9351562 L16.6141348,28.9351562 Z M19.297443,40.4503125 L19.297443,31.1197656 C29.5141447,27.0544219 40.967663,27.054625 51.1837522,31.120375 L51.1837522,40.4503125 C51.1837522,44.6875 49.5251358,48.6724063 46.5135342,51.6705313 C43.5264321,54.6444844 39.5021843,56.3182344 35.2406997,56.3182344 C26.4494609,56.3182344 19.297443,49.1999219 19.297443,40.4503125 L19.297443,40.4503125 Z M35.2398831,69.4939375 C30.8377304,69.4939375 26.7720377,67.3995156 24.2216392,63.9220156 C26.7181388,63.1505469 28.4494371,60.666125 28.1989296,58.0187969 C30.3777522,58.8869531 32.754,59.3653125 35.2404955,59.3653125 C37.6922834,59.3653125 40.0711853,58.9023906 42.2818573,58.0252969 C42.1250605,60.649875 43.9427195,63.0203438 46.4237027,63.7002031 C43.8918831,67.3168438 39.7690248,69.4939375 35.2398831,69.4939375 L35.2398831,69.4939375 Z M96.6368662,63.2642969 C98.6889039,64.8962031 98.9916769,68.040375 97.2413915,70.0117031 L93.7265292,74.0110312 L87.0500059,67.3662031 L90.1604222,63.8369062 C91.8225094,61.9492656 94.6679227,61.6986094 96.6368662,63.2642969 Z M99.8950961,26.693875 L90.7972052,34.0484219 L90.7965927,19.1617969 L99.894892,26.51675 C99.9412369,26.5453906 99.9424618,26.6642188 99.8950961,26.693875 Z M43.670775,39.2963594 C44.5166204,39.2963594 45.2019941,38.6142656 45.2019941,37.7729219 L45.2019941,34.4164844 C45.2019941,33.5751406 44.5166204,32.8930469 43.670775,32.8930469 C42.8249296,32.8930469 42.139556,33.5751406 42.139556,34.4164844 L42.139556,37.7729219 C42.139556,38.6144688 42.8251338,39.2963594 43.670775,39.2963594 Z M26.8089911,32.89325 C25.9631457,32.89325 25.2777721,33.5753438 25.2777721,34.4166875 L25.2777721,37.773125 C25.2777721,38.6144688 25.9631457,39.2965625 26.8089911,39.2965625 C27.6548365,39.2965625 28.3402101,38.6144688 28.3402101,37.773125 L28.3402101,34.4166875 C28.3402101,33.5751406 27.6546323,32.89325 26.8089911,32.89325 Z M39.9546085,46.8725156 C39.5479167,46.1351719 38.6175481,45.8650156 37.8756214,46.2696406 C37.3006997,46.5834688 36.364002,46.9525469 35.1825134,46.9425938 C34.0483905,46.9308125 33.1543627,46.5702656 32.6041447,46.2696406 C31.8620139,45.8648125 30.9318494,46.1345625 30.5249534,46.8723125 C30.1180575,47.6100625 30.3893895,48.5359063 31.1307037,48.9409375 C31.9881863,49.4091406 33.3815956,49.9709844 35.1504599,49.9894688 C36.9374945,50.0079531 38.4652428,49.4231563 39.3486541,48.9411406 C40.0901724,48.5363125 40.3613003,47.6102656 39.9546085,46.8725156 L39.9546085,46.8725156 Z" id="Shape"></path>
                </g>
            </g>
        </g>
    </g>
</svg>