<?xml version="1.0" encoding="UTF-8"?>
<svg width="103px" height="103px" viewBox="0 0 103 103" version="1.1" xmlns="http://www.w3.org/2000/svg" xmlns:xlink="http://www.w3.org/1999/xlink">
    <!-- Generator: Sketch 58 (84663) - https://sketch.com -->
    <title>002-kayak</title>
    <desc>Created with Sketch.</desc>
    <g id="Page-1" stroke="none" stroke-width="1" fill="none" fill-rule="evenodd">
        <g id="woodland_outdoor" transform="translate(-1357.000000, -3282.000000)" fill="#B9C4BD" fill-rule="nonzero">
            <g id="s4" transform="translate(381.000000, 3219.000000)">
                <g id="002-kayak" transform="translate(976.000000, 63.000000)">
                    <path d="M91.4615355,78.6406813 C89.94801,77.1386477 87.0649314,76.2699656 82.8925532,76.0592486 C81.5280412,75.9904104 79.5700965,76.002217 78.2521638,76.0822614 L71.9950081,69.8726152 C77.5433919,64.1850588 82.5622635,57.5956018 86.9266049,50.264133 C87.3514648,49.550537 87.1129222,48.6302263 86.3936648,48.2085923 C85.6748108,47.7875586 84.7474588,48.0238898 84.3223973,48.7374858 C79.8108572,56.3164919 74.5869155,63.0732418 68.7957547,68.8204313 C59.5803079,77.9659068 47.9838713,85.5507161 34.3288706,91.3641424 C23.1062785,96.1417939 12.9723519,98.6669953 6.44741554,99.943904 C5.49344681,100.130207 4.55218153,99.84665 3.864582,99.1646715 C3.17738576,98.482693 2.89125563,97.5483745 3.0793877,96.601449 C4.34690988,90.2215083 7.45239971,77.4950455 14.0067759,63.9441251 C14.3681185,63.1969104 14.0507338,62.3004129 13.2976006,61.9416137 C12.5456773,61.5828146 11.6413125,61.8975893 11.2797682,62.6452042 C4.91654879,75.8017057 1.69430819,88.0567069 0.112022706,96.0207267 C-0.268879202,97.9373904 0.334433932,99.9062831 1.725966,101.287049 C2.84286153,102.395464 4.3412639,103 5.88806038,103 C6.26835736,103 6.65147733,102.96338 7.03278252,102.888738 C13.7006832,101.583814 24.0562143,99.0035821 35.5215836,94.1224732 C49.0059951,88.3814871 60.54819,80.9407577 69.8557872,71.9943927 L75.9336831,78.0261402 C75.7655136,80.339424 75.4164711,88.4637328 78.4898998,91.5138255 L89.0930475,102.036265 C89.6967639,102.635598 90.4999044,102.965781 91.3538586,102.965781 C92.2076112,102.965781 93.01055,102.635798 93.6146697,102.036465 L102.065086,93.650011 C103.311638,92.4129245 103.311638,90.4000074 102.065086,89.1631209 L91.4615355,78.6406813 Z M99.9258655,91.5278333 L91.4756504,99.9140874 C91.408302,99.9807244 91.2986087,99.9807244 91.2316635,99.9140874 L80.6285159,89.3914476 C79.018807,87.7941612 78.7167472,82.653108 78.89883,79.0467066 C82.5336303,78.8668067 87.7144205,79.1665731 89.3227178,80.7630591 L99.9258655,91.2856989 C99.993214,91.352536 99.993214,91.4611963 99.9258655,91.5278333 L99.9258655,91.5278333 Z" id="Shape"></path>
                    <path d="M101.271994,1.72181384 C99.8789411,0.333567519 97.8935383,-0.26811988 95.9588104,0.11168146 C89.2826565,1.42348471 78.9143076,4.01731866 67.434747,8.92436002 C53.933645,14.6954092 42.3771636,22.1755644 33.0580457,31.16889 L27.1133454,25.2455582 C27.2841457,22.6977913 27.5403463,14.8633828 24.5408416,11.8746601 L13.924166,1.29654899 C13.3195004,0.694056927 12.5157697,0.362334252 11.6607584,0.362334252 C10.8057472,0.362334252 10.0016126,0.694056927 9.39714897,1.29654899 L0.936070752,9.72721338 C-0.312023584,10.9708214 -0.312023584,12.9943498 0.936070752,14.2377566 L11.5525445,24.8158677 C13.7929364,27.0482064 18.7463487,27.4706549 22.1758826,27.4706549 C23.3385767,27.4706549 24.3242119,27.4221739 24.9714766,27.3789232 L30.9173883,33.3034621 C24.4314163,39.9783499 18.6859831,47.864458 13.8294788,56.7706788 C13.4301371,57.5027217 13.7020852,58.4188315 14.4369709,58.8165366 C14.6667236,58.9410584 14.9142428,59 15.1585317,59 C15.6955636,59 16.2158384,58.7145455 16.4904111,58.2112283 C21.4714825,49.0770865 27.4026561,41.052375 34.1189865,34.3599857 C43.3458398,25.1662988 54.9566301,17.5415053 68.6285324,11.6974328 C79.8650155,6.89439428 90.0114854,4.35588097 96.5444981,3.07224096 C97.4994458,2.88455311 98.4422799,3.17000761 99.1305286,3.85558122 C99.8185754,4.54115483 100.10506,5.48039871 99.9166948,6.43231606 C98.481245,13.6855561 94.9089737,28.0773715 87.1133304,42.9692855 C86.726506,43.7081681 87.0139997,44.6194499 87.7555478,45.0048839 C88.497096,45.3899155 89.4116653,45.1038575 89.7982878,44.3649749 C97.7695768,29.1375161 101.420788,14.4286631 102.887935,7.01609968 C103.269106,5.08933208 102.665046,3.11006016 101.271994,1.72181384 Z M24.1312034,24.3990518 C23.1762558,24.4425037 21.7821938,24.4734832 20.2865803,24.3974425 C17.0248184,24.2318829 14.6219036,23.6068603 13.6942114,22.6823015 L3.07773764,12.1041904 C3.04402173,12.0707969 3.02706283,12.029759 3.02706283,11.982485 C3.02706283,11.935211 3.04402173,11.8941732 3.07773764,11.8607796 L11.5388159,3.43011521 C11.5723299,3.39672166 11.6133139,3.37982372 11.6607584,3.37982372 C11.708203,3.37982372 11.749187,3.39672166 11.782701,3.43011521 L22.3989729,14.0082263 C24.0088571,15.6121225 24.3123003,20.7742423 24.1312034,24.3990518 Z" id="Shape"></path>
                    <path d="M62.6251733,19.1798386 C52.2028208,23.5507246 43.3601729,29.3250379 36.3424569,36.3425762 C29.3251428,43.3601145 23.5506478,52.2027917 19.1799773,62.6251789 C16.8318274,68.2238124 18.0412794,74.3697867 22.3355676,78.6642902 C25.1802019,81.5089339 28.8375027,83 32.6097789,83 C34.5321985,83 36.484568,82.6128615 38.3748267,81.8200919 C48.7971792,77.449206 57.6398271,71.6748927 64.6575431,64.6573544 C71.6748572,57.6398161 77.4493522,48.7971389 81.8200227,38.3747517 C84.1681726,32.7759172 82.9587206,26.6301439 78.6644324,22.3356404 C74.3701441,18.0413379 68.2243913,16.8318819 62.6251733,19.1798386 L62.6251733,19.1798386 Z M37.2089929,79.0397703 C32.7613373,80.9047084 27.879308,79.9438974 24.4676363,76.5324154 C21.0559646,73.1207324 20.0953578,68.2386869 21.9602898,63.7912175 C25.1743728,56.1272423 29.1669513,49.3613641 33.8654622,43.591674 L57.4080674,67.1347593 C51.6385974,71.8332858 44.8727417,75.8258776 37.2089929,79.0397703 L37.2089929,79.0397703 Z M62.5254744,62.5254796 C61.6203452,63.4306118 60.6806431,64.3126283 59.711996,65.1745441 L35.8256709,41.2879387 C35.8483846,41.2626119 37.6003513,39.3488291 38.4747266,38.4744509 C39.7706111,37.1785622 42.7356479,34.5745232 42.7559494,34.5574376 L66.4426758,58.2442426 C65.1847814,59.7407358 63.8802536,61.170696 62.5254744,62.5254796 L62.5254744,62.5254796 Z M79.0397102,37.2089141 C76.1050253,44.2067538 72.5214937,50.4562464 68.3441908,55.8822154 L45.1179688,32.6559163 C50.5439198,28.4788006 56.7933916,24.895257 63.7910071,21.9605623 C65.2925205,21.33101 66.8430794,21.0232691 68.3701205,21.0232691 C71.3667152,21.0232691 74.2722543,22.2080013 76.5321627,24.4677162 C79.9442364,27.8791982 80.9048432,32.7614447 79.0397102,37.2089141 L79.0397102,37.2089141 Z" id="Shape"></path>
                    <path d="M13.463749,82.4637704 C12.845417,83.082131 12.845417,84.0847237 13.463749,84.7028732 L18.2968294,89.5361768 C18.606101,89.8452515 19.0114262,90 19.4165402,90 C19.8216543,90 20.2269795,89.8454626 20.536251,89.5361768 C21.154583,88.9178163 21.154583,87.9152235 20.536251,87.2968629 L15.7031706,82.4637704 C15.0846275,81.8454099 14.0822921,81.8454099 13.463749,82.4637704 Z" id="Path"></path>
                    <path d="M87.4164984,22 C87.8216232,22 88.2269591,21.8454626 88.5362388,21.5361768 C89.1545871,20.9178163 89.1545871,19.9152235 88.5362388,19.2970741 L83.7030308,14.4637704 C83.0844714,13.8454099 82.0821095,13.8454099 81.4637612,14.4637704 C80.8454129,15.082131 80.8454129,16.0847237 81.4637612,16.7028732 L86.2969692,21.5361768 C86.6060378,21.8452515 87.0113737,22 87.4164984,22 L87.4164984,22 Z" id="Path"></path>
                </g>
            </g>
        </g>
    </g>
</svg>