<?xml version="1.0" encoding="UTF-8"?>
<svg width="312px" height="25px" viewBox="0 0 312 25" version="1.1" xmlns="http://www.w3.org/2000/svg" xmlns:xlink="http://www.w3.org/1999/xlink">
    <!-- Generator: Sketch 58 (84663) - https://sketch.com -->
    <title>WOODLANDHOTEL</title>
    <desc>Created with Sketch.</desc>
    <g id="Page-1" stroke="none" stroke-width="1" fill="none" fill-rule="evenodd">
        <g id="woodland_hotel" transform="translate(-381.000000, -158.000000)" fill="#FFFFFF" fill-rule="nonzero">
            <g id="header">
                <g id="WOODLANDHOTEL">
                    <path d="M417,159 L411.392308,183 L401.838462,183 L399,169.372881 L396.161538,183 L386.607692,183 L381,159 L389.273077,159 L391.488462,174.118644 L394.811538,159 L403.188462,159 L406.511538,174.118644 L408.726923,159 L417,159 Z M431.534341,183 C429.244952,183 427.144469,182.461262 425.23283,181.383769 C423.32119,180.306276 421.804493,178.816149 420.682692,176.913343 C419.560892,175.010536 419,172.867045 419,170.482806 C419,168.098567 419.560892,165.955076 420.682692,164.05227 C421.804493,162.149463 423.32119,160.665067 425.23283,159.599037 C427.144469,158.533007 429.244952,158 431.534341,158 C433.823729,158 435.918489,158.533007 437.818681,159.599037 C439.718874,160.665067 441.224124,162.149463 442.334478,164.05227 C443.444832,165.955076 444,168.098567 444,170.482806 C444,172.867045 443.444832,175.010536 442.334478,176.913343 C441.224124,178.816149 439.713151,180.306276 437.801511,181.383769 C435.889871,182.461262 433.800836,183 431.534341,183 Z M432.018051,176 C433.606506,176 434.833931,175.505296 435.700361,174.515873 C436.566791,173.52645 437,172.193659 437,170.51746 C437,168.817981 436.566791,167.47355 435.700361,166.484127 C434.833931,165.494704 433.606506,165 432.018051,165 C430.405527,165 429.166069,165.494704 428.299639,166.484127 C427.433209,167.47355 427,168.817981 427,170.51746 C427,172.193659 427.433209,173.52645 428.299639,174.515873 C429.166069,175.505296 430.405527,176 432.018051,176 Z M458.534341,183 C456.244952,183 454.144469,182.461262 452.23283,181.383769 C450.32119,180.306276 448.804493,178.816149 447.682692,176.913343 C446.560892,175.010536 446,172.867045 446,170.482806 C446,168.098567 446.560892,165.955076 447.682692,164.05227 C448.804493,162.149463 450.32119,160.665067 452.23283,159.599037 C454.144469,158.533007 456.244952,158 458.534341,158 C460.823729,158 462.918489,158.533007 464.818681,159.599037 C466.718874,160.665067 468.224124,162.149463 469.334478,164.05227 C470.444832,165.955076 471,168.098567 471,170.482806 C471,172.867045 470.444832,175.010536 469.334478,176.913343 C468.224124,178.816149 466.713151,180.306276 464.801511,181.383769 C462.889871,182.461262 460.800836,183 458.534341,183 Z M459.018051,176 C460.606506,176 461.833931,175.505296 462.700361,174.515873 C463.566791,173.52645 464,172.193659 464,170.51746 C464,168.817981 463.566791,167.47355 462.700361,166.484127 C461.833931,165.494704 460.606506,165 459.018051,165 C457.405527,165 456.166069,165.494704 455.299639,166.484127 C454.433209,167.47355 454,168.817981 454,170.51746 C454,172.193659 454.433209,173.52645 455.299639,174.515873 C456.166069,175.505296 457.405527,176 459.018051,176 Z M484.233786,159 C486.800918,159 489.050015,159.508469 490.981146,160.525424 C492.912277,161.542373 494.398185,162.954793 495.438914,164.762712 C496.479643,166.570631 497,168.627107 497,170.932203 C497,173.214701 496.479643,175.271177 495.438914,177.101695 C494.398185,178.932213 492.912277,180.372876 490.981146,181.423729 C489.050015,182.474582 486.800918,183 484.233786,183 L474,183 L474,159 L484.233786,159 Z M483.717593,176 C485.337971,176 486.623452,175.524266 487.574074,174.572785 C488.524696,173.621303 489,172.263722 489,170.5 C489,168.736278 488.524696,167.378697 487.574074,166.427215 C486.623452,165.475734 485.337971,165 483.717593,165 L482,165 L482,176 L483.717593,176 Z M506.637615,177.305085 L514,177.305085 L514,183 L499,183 L499,159 L506.637615,159 L506.637615,177.305085 Z M532.60414,179.372881 L524.360931,179.372881 L523.138422,183 L515,183 L524.046572,159 L532.988357,159 L542,183 L533.826649,183 L532.60414,179.372881 Z M530,173 L528,166 L526,173 L530,173 Z M566,183 L558.480118,183 L550.519882,170.932203 L550.519882,183 L543,183 L543,159 L550.519882,159 L558.480118,171.271186 L558.480118,159 L566,159 L566,183 Z M580.233786,159 C582.800918,159 585.050015,159.508469 586.981146,160.525424 C588.912277,161.542373 590.398185,162.954793 591.438914,164.762712 C592.479643,166.570631 593,168.627107 593,170.932203 C593,173.214701 592.479643,175.271177 591.438914,177.101695 C590.398185,178.932213 588.912277,180.372876 586.981146,181.423729 C585.050015,182.474582 582.800918,183 580.233786,183 L570,183 L570,159 L580.233786,159 Z M579.717593,176 C581.337971,176 582.623452,175.524266 583.574074,174.572785 C584.524696,173.621303 585,172.263722 585,170.5 C585,168.736278 584.524696,167.378697 583.574074,166.427215 C582.623452,165.475734 581.337971,165 579.717593,165 L578,165 L578,176 L579.717593,176 Z M615,159 L615,183 L612.572254,183 L612.572254,171.772532 L599.427746,171.772532 L599.427746,183 L597,183 L597,159 L599.427746,159 L599.427746,169.781116 L612.572254,169.781116 L612.572254,159 L615,159 Z M631,183 C628.757214,183 626.722552,182.46896 624.895954,181.406863 C623.069355,180.344766 621.630063,178.862521 620.578035,176.960084 C619.526006,175.057647 619,172.904307 619,170.5 C619,168.095693 619.526006,165.942353 620.578035,164.039916 C621.630063,162.137479 623.069355,160.655234 624.895954,159.593137 C626.722552,158.53104 628.757214,158 631,158 C633.265907,158 635.31213,158.53104 637.138728,159.593137 C638.965327,160.655234 640.398839,162.137479 641.439306,164.039916 C642.479774,165.942353 643,168.095693 643,170.5 C643,172.904307 642.479774,175.057647 641.439306,176.960084 C640.398839,178.862521 638.965327,180.344766 637.138728,181.406863 C635.31213,182.46896 633.265907,183 631,183 Z M630.5,181 C632.302929,181 633.920917,180.593913 635.354015,179.781726 C636.787112,178.969539 637.919704,177.802038 638.751825,176.279188 C639.583946,174.756338 640,172.990986 640,170.98308 C640,168.975173 639.583946,167.215462 638.751825,165.703892 C637.919704,164.192322 636.787112,163.030461 635.354015,162.218274 C633.920917,161.406087 632.302929,161 630.5,161 C628.697071,161 627.079083,161.406087 625.645985,162.218274 C624.212888,163.030461 623.080296,164.192322 622.248175,165.703892 C621.416054,167.215462 621,168.975173 621,170.98308 C621,172.990986 621.416054,174.756338 622.248175,176.279188 C623.080296,177.802038 624.212888,178.969539 625.645985,179.781726 C627.079083,180.593913 628.697071,181 630.5,181 Z M661,159 L661,160.991416 L654.237473,160.991416 L654.237473,183 L651.797386,183 L651.797386,160.991416 L645,160.991416 L645,159 L661,159 Z M667.493151,160.988571 L667.493151,169.937143 L676.931507,169.937143 L676.931507,171.925714 L667.493151,171.925714 L667.493151,181.011429 L678,181.011429 L678,183 L665,183 L665,159 L678,159 L678,160.988571 L667.493151,160.988571 Z M684.398754,181.042918 L693,181.042918 L693,183 L682,183 L682,159 L684.398754,159 L684.398754,181.042918 Z"></path>
                </g>
            </g>
        </g>
    </g>
</svg>