<?xml version="1.0" encoding="UTF-8"?>
<svg width="18px" height="17px" viewBox="0 0 18 17" version="1.1" xmlns="http://www.w3.org/2000/svg" xmlns:xlink="http://www.w3.org/1999/xlink">
    <!-- Generator: Sketch 58 (84663) - https://sketch.com -->
    <title>Path</title>
    <desc>Created with Sketch.</desc>
    <g id="Page-1" stroke="none" stroke-width="1" fill="none" fill-rule="evenodd">
        <g id="woodland_hotel" transform="translate(-968.000000, -5284.000000)" fill="#142C1D" fill-rule="nonzero">
            <g id="Group-8-Copy" transform="translate(380.000000, 5091.000000)">
                <g id="Group-9-Copy-2" transform="translate(588.000000, 190.000000)">
                    <g id="001-email" transform="translate(0.000000, 3.000000)">
                        <path d="M17.7900884,0.124573464 C17.6337109,-0.00236909547 17.4177075,-0.0352381511 17.2287044,0.0395672859 L0.353433469,6.84006156 C0.145305127,6.92393432 0.00580288719,7.1245489 0,7.35123204 C-0.00544729345,7.57791519 0.122804766,7.78533026 0.327558053,7.88053718 L5.62526812,10.3445829 L17.4379578,0.565472176 L7.87530424,11.3907256 L7.87530424,17 L11.8668683,13.2472606 L14.9516679,14.6810315 C15.0270441,14.7150339 15.1080454,14.7331686 15.1879217,14.7331686 C15.2779231,14.7331686 15.3690496,14.7105003 15.4500509,14.6674305 C15.6064284,14.5846911 15.7133051,14.4339468 15.7425556,14.2594008 L17.9925917,0.658412265 C18.0252172,0.457797684 17.948716,0.25264944 17.7900884,0.124573464 Z" id="Path"></path>
                    </g>
                </g>
            </g>
        </g>
    </g>
</svg>