<?xml version="1.0" encoding="UTF-8"?>
<svg width="103px" height="103px" viewBox="0 0 103 103" version="1.1" xmlns="http://www.w3.org/2000/svg" xmlns:xlink="http://www.w3.org/1999/xlink">
    <!-- Generator: Sketch 58 (84663) - https://sketch.com -->
    <title>002-parking</title>
    <desc>Created with Sketch.</desc>
    <g id="Page-1" stroke="none" stroke-width="1" fill="none" fill-rule="evenodd">
        <g id="woodland_aboutus" transform="translate(-1059.000000, -2488.000000)" fill="#B9C4BD" fill-rule="nonzero">
            <g id="s4" transform="translate(381.000000, 2427.000000)">
                <g id="002-parking" transform="translate(678.000000, 61.000000)">
                    <path d="M66,42 C66,35.9346 61.0654,31 55,31 L40,31 C38.8956,31 38,31.8956 38,33 L38,51 C38,52.1044 38.8956,53 40,53 L55,53 C61.0654,53 66,48.0654 66,42 Z M42,35 L55,35 C58.8598,35 62,38.1402 62,42 C62,45.8598 58.8598,49 55,49 L42,49 L42,35 Z" id="Shape"></path>
                    <path d="M78,42.359375 C78,29.4790156 67.6822,19 55,19 L28,19 C26.8956,19 26,19.9095937 26,21.03125 L26,81.96875 C26,83.0904062 26.8956,84 28,84 L40,84 C41.1044,84 42,83.0904062 42,81.96875 L42,65.71875 L55,65.71875 C67.6822,65.71875 78,55.2397344 78,42.359375 Z M40,61.65625 C38.8956,61.65625 38,62.5658437 38,63.6875 L38,79.9375 L30,79.9375 L30,23.0625 L55,23.0625 C65.4766,23.0625 74,31.7190781 74,42.359375 C74,52.9996719 65.4766,61.65625 55,61.65625 L40,61.65625 Z" id="Shape"></path>
                    <circle id="Oval" cx="52" cy="101" r="2"></circle>
                    <path d="M94.953125,0 L8.046875,0 C3.60982812,0 0,3.60982812 0,8.046875 L0,94.953125 C0,99.3901719 3.60982812,103 8.046875,103 L42.4472656,103 C43.5581367,103 44.4589844,102.099152 44.4589844,100.988281 C44.4589844,99.8774102 43.5581367,98.9765625 42.4472656,98.9765625 L8.046875,98.9765625 C5.82835156,98.9765625 4.0234375,97.1716484 4.0234375,94.953125 L4.0234375,8.046875 C4.0234375,5.82835156 5.82835156,4.0234375 8.046875,4.0234375 L94.953125,4.0234375 C97.1716484,4.0234375 98.9765625,5.82835156 98.9765625,8.046875 L98.9765625,94.953125 C98.9765625,97.1716484 97.1716484,98.9765625 94.953125,98.9765625 L60.5527344,98.9765625 C59.4418633,98.9765625 58.5410156,99.8774102 58.5410156,100.988281 C58.5410156,102.099152 59.4418633,103 60.5527344,103 L94.953125,103 C99.3901719,103 103,99.3901719 103,94.953125 L103,8.046875 C103,3.60982812 99.3901719,0 94.953125,0 Z" id="Path"></path>
                </g>
            </g>
        </g>
    </g>
</svg>