<?xml version="1.0" encoding="UTF-8"?>
<svg width="40px" height="40px" viewBox="0 0 40 40" version="1.1" xmlns="http://www.w3.org/2000/svg" xmlns:xlink="http://www.w3.org/1999/xlink">
    <!-- Generator: Sketch 58 (84663) - https://sketch.com -->
    <title>Combined Shape</title>
    <desc>Created with Sketch.</desc>
    <g id="Page-1" stroke="none" stroke-width="1" fill="none" fill-rule="evenodd">
        <g id="woodland_hotel" transform="translate(-1205.000000, -37.000000)" fill="#FFFFFF">
            <path d="M1225,37 C1236.04569,37 1245,45.954305 1245,57 C1245,68.045695 1236.04569,77 1225,77 C1213.95431,77 1205,68.045695 1205,57 C1205,45.954305 1213.95431,37 1225,37 Z M1219.26803,46.0259381 L1214.79923,47.0572009 C1214.3313,47.165256 1214,47.5820078 1214,48.0622524 C1214,59.0838735 1222.93331,68 1233.93774,68 C1234.41815,68.0003078 1234.83513,67.6688584 1234.94322,67.2007711 L1235.97448,62.7319657 C1236.08428,62.2434233 1235.83165,61.7457458 1235.37248,61.5460135 L1230.55993,59.4834879 C1230.13759,59.3034987 1229.64713,59.424362 1229.35679,59.7799759 L1227.22551,62.3839145 C1223.88067,60.8068548 1221.18885,58.1150273 1219.61179,54.7701872 L1222.21572,52.6389108 C1222.57211,52.3490528 1222.69311,51.8580309 1222.51221,51.4357709 L1220.44969,46.6232112 C1220.25034,46.1661839 1219.75424,45.9154256 1219.26803,46.0259381 Z" id="Combined-Shape"></path>
        </g>
    </g>
</svg>