<?xml version="1.0" encoding="UTF-8"?>
<svg width="14px" height="17px" viewBox="0 0 14 17" version="1.1" xmlns="http://www.w3.org/2000/svg" xmlns:xlink="http://www.w3.org/1999/xlink">
    <!-- Generator: Sketch 58 (84663) - https://sketch.com -->
    <title>Path</title>
    <desc>Created with Sketch.</desc>
    <g id="Page-1" stroke="none" stroke-width="1" fill="none" fill-rule="evenodd">
        <g id="woodland_hotel" transform="translate(-380.000000, -5284.000000)" fill="#142C1D" fill-rule="nonzero">
            <g id="Group-8-Copy" transform="translate(380.000000, 5091.000000)">
                <g id="Group-9" transform="translate(0.000000, 190.000000)">
                    <g id="phone-alt" transform="translate(0.000000, 3.000000)">
                        <path d="M13.6006717,12.0128286 L10.5381348,10.4190588 C10.2693769,10.2799763 9.95726625,10.3733706 9.77250061,10.6481632 L8.41623426,12.6602976 C6.28770043,11.4416605 4.5747199,9.36161199 3.57113681,6.77696285 L5.22818803,5.13006742 C5.45497848,4.90608627 5.53197961,4.52666028 5.41686218,4.20036839 L4.10434636,0.481572254 C3.97749199,0.128414805 3.66178928,-0.0653529282 3.35238417,0.0200430912 L0.508599896,0.816927977 C0.210825962,0.900425058 0,1.22246054 0,1.59355871 C0,10.1102659 5.68483415,17 12.6876529,17 C12.9933653,17.0002379 13.2587191,16.7441179 13.3275044,16.382414 L13.9837623,12.9292462 C14.0536311,12.5517362 13.8928696,12.1671672 13.6006717,12.0128286 L13.6006717,12.0128286 Z" id="Path"></path>
                    </g>
                </g>
            </g>
        </g>
    </g>
</svg>