<?xml version="1.0" encoding="UTF-8"?>
<svg width="103px" height="103px" viewBox="0 0 103 103" version="1.1" xmlns="http://www.w3.org/2000/svg" xmlns:xlink="http://www.w3.org/1999/xlink">
    <!-- Generator: Sketch 58 (84663) - https://sketch.com -->
    <title>001-restaurant</title>
    <desc>Created with Sketch.</desc>
    <g id="Page-1" stroke="none" stroke-width="1" fill="none" fill-rule="evenodd">
        <g id="woodland_aboutus" transform="translate(-760.000000, -2488.000000)" fill="#B9C4BD" fill-rule="nonzero">
            <g id="s4" transform="translate(381.000000, 2427.000000)">
                <g id="001-restaurant" transform="translate(379.000000, 61.000000)">
                    <path d="M51.5,0 C23.1029,0 0,23.1029 0,51.5 C0,79.8971 23.1029,103 51.5,103 C79.8971,103 103,79.8971 103,51.5 C103,23.1029 79.8971,0 51.5,0 Z M51.5,99.5666667 C24.995525,99.5666667 3.43333333,78.004475 3.43333333,51.5 C3.43333333,24.995525 24.995525,3.43333333 51.5,3.43333333 C78.004475,3.43333333 99.5666667,24.995525 99.5666667,51.5 C99.5666667,78.004475 78.004475,99.5666667 51.5,99.5666667 Z" id="Shape"></path>
                    <path d="M22,21.2955649 L19.7787791,19 C18.8070576,19.9316028 17.8713851,20.9159567 17,21.9283781 L19.4345109,24 C20.2394056,23.0636197 21.1033806,22.1539135 22,21.2955649 L22,21.2955649 Z" id="Path"></path>
                    <path d="M7,48.7216705 L10.469552,49 C11.0669936,41.4534076 13.6686634,34.2097978 18,28.0336083 L15.1591997,26 C10.4670228,32.6940519 7.64825357,40.5437368 7,48.7216705 L7,48.7216705 Z" id="Path"></path>
                    <path d="M75.4474173,18.3698147 C75.4477067,14.6108981 72.6046174,11.4542735 68.8496092,11.0444018 C65.0946011,10.6345301 61.6314387,13.1028062 60.8128301,16.7724005 C60.5239657,18.0659911 60.2919761,19.3721346 60.0533582,20.6765761 C57.2675228,19.9138131 54.3900937,19.5330009 51.5007468,19.5446843 L51.5007468,11.0012418 L48.0790608,11.0012418 L48.0790608,31.4263564 C48.0751865,33.2671397 47.4753788,35.0576953 46.3685385,36.5326351 C45.8707691,37.192611 45.2787287,37.7766447 44.6111907,38.2662167 C42.491426,39.8221423 41.2820867,42.4218764 41.378945,45.2292659 L42.9457834,84.2527239 C42.9785451,85.1294204 42.648986,85.9812058 42.0338612,86.609697 C40.7379149,87.8797199 38.657516,87.8797199 37.3615696,86.609697 C36.7457003,85.9797613 36.4160583,85.1262697 36.4494336,84.2480431 L37.6739538,45.2194789 C37.7708121,42.4220892 36.5621143,39.8223551 34.4399976,38.2664294 C33.7729284,37.7761449 33.1814635,37.1914654 32.6843603,36.530933 C31.5773086,35.0567514 30.977456,33.2666587 30.973838,31.4263564 L30.973838,11.0012418 L27.5527934,11.0012418 L27.5527934,30.0417039 C21.1734988,36.9421711 18.1300363,46.2647458 19.2160472,55.5783875 C20.3020582,64.8920291 25.409886,73.2734728 33.2075663,78.537096 L33.0318101,84.1363433 C32.9485725,86.5613859 34.2018776,88.8383437 36.3002698,90.0743587 C38.3986621,91.3103736 41.0076438,91.3084167 43.104161,90.0692553 C45.2006783,88.8300938 46.4505323,86.5512585 46.3636208,84.1263435 L46.3492951,83.7703933 C51.6845389,84.643802 57.1553457,84.153273 62.2477445,82.3448905 L62.1324981,83.910816 C61.9659341,86.3284689 63.1377243,88.6440567 65.1888445,89.9504965 C67.2399647,91.2569363 69.8438517,91.3462271 71.9804874,90.1833911 C74.1171231,89.020555 75.4463293,86.7907297 75.4474173,84.3674024 L75.4474173,73.6612382 C86.8508609,61.3353103 86.8508609,42.3676317 75.4474173,30.0417039 L75.4474173,18.3698147 Z M33.3369245,74.4135632 C21.1591081,64.7582781 18.8313834,47.2503431 28.0670192,34.7760752 C28.7763611,37.2766459 30.3051387,39.4696214 32.4104629,41.0065862 C33.6232232,41.8959297 34.3134189,43.4284516 34.2563302,45.1090556 L33.3369245,74.4135632 Z M62.5244215,78.5858184 C57.3775796,80.7607046 51.6914135,81.3412667 46.2079632,80.2517418 L44.7967824,45.1035238 C44.7401213,43.4280261 45.4298894,41.8955042 46.6409392,41.0061607 C47.5773977,40.3200234 48.4077051,39.500976 49.1053742,38.5751465 C50.6556914,36.5106162 51.4955064,34.0035871 51.5001054,31.4263564 L51.5001054,22.9445695 C54.2045375,22.9333081 56.8966756,23.3074574 59.4944451,24.0558687 C58.7393111,29.0587326 58.3541931,34.1099993 58.3421945,39.1689642 L58.3421945,56.9577497 C58.3421945,57.8977896 59.1080214,58.6598426 60.0527168,58.6598426 L63.991622,58.6598426 L62.5244215,78.5858184 Z M72.0263731,84.3674024 C72.0244872,86.1494104 70.5732004,87.5935453 68.7823673,87.5954216 C67.8844942,87.5954216 67.0267198,87.2253968 66.4132477,86.5730149 C65.7997756,85.9206329 65.4854877,85.0444089 65.5452038,84.1529387 L67.5379623,57.082428 C67.5727832,56.6106701 67.408743,56.1457705 67.0851828,55.7992245 C66.7616226,55.4526784 66.307729,55.255746 65.8323578,55.2556568 L61.7632391,55.2556568 L61.7632391,39.1689642 C61.7641837,31.8841273 62.5657672,24.6212406 64.153694,17.5098322 C64.5937855,15.5353456 66.457131,14.2071594 68.4774771,14.4278545 C70.4978232,14.6485497 72.0272289,16.3473476 72.0263731,18.3698147 L72.0263731,84.3674024 Z M80.5789876,51.851471 C80.5818534,57.6978621 78.7915916,63.4058911 75.4474173,68.2128389 L75.4474173,35.4901032 C78.7915916,40.297051 80.5818534,46.00508 80.5789876,51.851471 Z" id="Shape"></path>
                    <polygon id="Path" points="35 10 38 10 38 29 35 29"></polygon>
                    <polygon id="Path" points="41 10 44 10 44 29 41 29"></polygon>
                </g>
            </g>
        </g>
    </g>
</svg>