<?xml version="1.0" encoding="UTF-8"?>
<svg width="85px" height="104px" viewBox="0 0 85 104" version="1.1" xmlns="http://www.w3.org/2000/svg" xmlns:xlink="http://www.w3.org/1999/xlink">
    <!-- Generator: Sketch 58 (84663) - https://sketch.com -->
    <title>001-life-jacket</title>
    <desc>Created with Sketch.</desc>
    <g id="Page-1" stroke="none" stroke-width="1" fill="none" fill-rule="evenodd">
        <g id="woodland_outdoor" transform="translate(-471.000000, -3282.000000)" fill="#B9C4BD" fill-rule="nonzero">
            <g id="s4" transform="translate(381.000000, 3219.000000)">
                <g id="001-life-jacket" transform="translate(90.000000, 63.000000)">
                    <path d="M41.5934005,59.0310675 L43.4061967,59.0310675 C44.2406872,59.0310675 44.9168602,58.3490985 44.9168602,57.5079086 C44.9168602,56.6667186 44.2406872,55.9847496 43.4061967,55.9847496 L41.5934005,55.9847496 C40.75891,55.9847496 40.082737,56.6667186 40.082737,57.5079086 C40.082737,58.3490985 40.75891,59.0310675 41.5934005,59.0310675 L41.5934005,59.0310675 Z M43.4061967,80.3552928 L41.5934005,80.3552928 C40.75891,80.3552928 40.082737,81.0372618 40.082737,81.8784518 C40.082737,82.7196417 40.75891,83.4016107 41.5934005,83.4016107 L43.4061967,83.4016107 C44.2406872,83.4016107 44.9168602,82.7196417 44.9168602,81.8784518 C44.9168602,81.0372618 44.2406872,80.3552928 43.4061967,80.3552928 Z M82.5005569,44.0192191 L78.5250948,41.3878097 C75.4973223,39.3835356 74.354455,35.5009019 75.8081161,32.1558417 L83.9058768,13.5184688 C84.3260427,12.5511613 84.299455,11.4540807 83.8327607,10.5089098 C83.3757346,9.58303228 82.5495024,8.90898367 81.5585071,8.65126517 L55.0457583,0.0917211393 C54.5043365,-0.0707491487 53.7987559,-0.0321624553 53.3274289,0.327303057 C51.5033531,1.71804872 47.6499526,4.04949735 42.3267773,4.04949735 L42.3130806,4.04949735 C36.9957464,4.0454356 33.1467773,1.71581476 31.3257227,0.327303057 C31.0171445,0.0990323023 30.4894194,-0.0930888133 29.9538389,0.0917211393 L3.4406872,8.65106209 C2.44989336,8.90918676 1.62366114,9.58364154 1.16663507,10.5097222 C0.700343602,11.4548931 0.673755924,12.5511613 1.09351896,13.5180627 L9.19067536,32.1554356 C10.6439336,35.5002926 9.50126777,39.3831294 6.47470379,41.3878097 L2.49763033,44.0184067 C0.933590047,45.0549672 0,46.8001011 0,48.6869905 L0,94.3533267 C0,99.6724008 4.29209716,104 9.56753555,104 L34.443128,104 C37.8233886,104 40.7975829,102.221763 42.5,99.5458771 C44.2024171,102.221763 47.1766114,104 50.556872,104 L75.4324645,104 C80.7079028,104 85,99.6724008 85,94.3533267 L85,48.6878028 C85,46.8005073 84.0654028,45.0549672 82.5005569,44.0192191 L82.5005569,44.0192191 Z M3.02112559,48.6871935 C3.02112559,47.8291473 3.44572275,47.0356831 4.15593602,46.5651285 L8.13260664,43.9347345 C12.3956991,41.1114071 14.004455,35.6434696 11.9582109,30.9334559 L3.8610545,12.2962861 C3.68984597,11.8679738 3.94927725,11.6750403 4.31566351,11.5674038 L28.7845853,3.66789527 C28.6973697,6.69898158 28.9352488,9.71341468 29.4956043,12.6571732 C29.6525118,13.4831315 30.4447038,14.0237514 31.2636848,13.8659522 C32.0830687,13.7073405 32.6198578,12.9092052 32.4625474,12.0830438 C31.9755095,9.5241368 31.7521327,6.90653737 31.7934242,4.2712693 C34.2388863,5.67034157 37.8262085,7.09276894 42.3104621,7.09601834 L42.3265758,7.09601834 C47.0323934,7.09601834 50.7518483,5.53305417 53.202346,4.07061849 C53.2716351,7.38541854 52.9211611,10.66874 52.1537441,13.861078 C50.2198934,21.9055913 46.0325355,27.7886404 42.5018128,31.5549048 C38.9287915,27.7441642 36.103045,23.2707479 34.292263,18.5300679 C33.9927488,17.7453365 33.1181754,17.3539862 32.3396801,17.6561809 C31.5609834,17.9585787 31.173045,18.8401831 31.4727607,19.6251177 C33.5389455,25.0337536 36.8229265,30.1172458 40.9891351,34.3646253 L40.9891351,49.9938608 L36.9606991,49.9938608 C35.3505332,49.9938608 34.0404858,51.3145412 34.0400829,52.9380255 L3.02112559,52.9380255 L3.02112559,48.6871935 Z M47.9381872,53.0399756 L47.9381872,61.9758415 L42.511481,61.9758415 C42.5074526,61.9758415 42.5036256,61.9752322 42.4997986,61.9752322 C42.4959716,61.9752322 42.4919431,61.9758415 42.4881161,61.9758415 L37.06141,61.9758415 L37.06141,53.0399756 L47.9381872,53.0399756 Z M3.02112559,55.9841404 L34.0400829,55.9841404 L34.0400829,59.0304583 L3.02112559,59.0304583 L3.02112559,55.9841404 Z M3.02112559,62.0767762 L34.0400829,62.0767762 L34.0400829,62.0773854 C34.0400829,63.7010729 35.3503318,65.0221594 36.9606991,65.0221594 L40.9891351,65.0221594 L40.9891351,74.3642009 L36.9606991,74.3642009 C35.3505332,74.3642009 34.0404858,75.6848813 34.0400829,77.3083656 L3.02112559,77.3083656 L3.02112559,62.0767762 Z M3.02112559,80.3546835 L34.0400829,80.3546835 L34.0400829,83.4010014 L3.02112559,83.4010014 L3.02112559,80.3546835 Z M40.9891351,94.3535297 C40.9891351,97.9928642 38.0526066,100.953885 34.4429265,100.953885 L9.56733412,100.953885 C5.95765403,100.953885 3.02112559,97.9928642 3.02112559,94.3535297 L3.02112559,86.4473193 L34.0400829,86.4473193 L34.0400829,86.4479286 C34.0400829,88.0716161 35.3503318,89.3927026 36.9606991,89.3927026 L40.9891351,89.3927026 L40.9891351,94.3535297 Z M42.511481,86.3463847 C42.5074526,86.3463847 42.5036256,86.3457754 42.4997986,86.3457754 C42.4959716,86.3457754 42.4919431,86.3463847 42.4881161,86.3463847 L37.06141,86.3463847 L37.06141,77.4105188 L47.9381872,77.4105188 L47.9381872,86.3463847 L42.511481,86.3463847 Z M81.9784716,94.3535297 C81.9784716,97.9928642 79.0419431,100.953885 75.432263,100.953885 L50.5566706,100.953885 C46.9469905,100.953885 44.0104621,97.9928642 44.0104621,94.3535297 L44.0104621,89.3927026 L48.0388981,89.3927026 C49.6492654,89.3927026 50.9595142,88.0716161 50.9595142,86.4479286 L50.9595142,86.4473193 L81.9784716,86.4473193 L81.9784716,94.3535297 Z M81.9784716,83.4010014 L50.9595142,83.4010014 L50.9595142,80.3546835 L81.9784716,80.3546835 L81.9784716,83.4010014 Z M81.9784716,59.0304583 L70.4974289,59.0304583 C69.6629384,59.0304583 68.9867654,59.7124273 68.9867654,60.5536172 C68.9867654,61.3948071 69.6629384,62.0767762 70.4974289,62.0767762 L81.9784716,62.0767762 L81.9784716,77.3083656 L50.9595142,77.3083656 C50.9591114,75.6848813 49.649064,74.3642009 48.0388981,74.3642009 L44.0104621,74.3642009 L44.0104621,65.0221594 L48.0388981,65.0221594 C49.6492654,65.0221594 50.9595142,63.7010729 50.9595142,62.0773854 L50.9595142,62.0767762 L62.7700829,62.0767762 C63.6045735,62.0767762 64.2807464,61.3948071 64.2807464,60.5536172 C64.2807464,59.7124273 63.6045735,59.0304583 62.7700829,59.0304583 L50.9595142,59.0304583 L50.9595142,55.9841404 L81.9784716,55.9841404 L81.9784716,59.0304583 Z M81.9784716,52.9378225 L50.9595142,52.9378225 C50.9591114,51.3143381 49.649064,49.9936577 48.0388981,49.9936577 L44.0104621,49.9936577 L44.0104621,34.3634068 C47.9369787,30.3593265 52.8760427,23.7890281 55.0902725,14.5785875 C55.9453081,11.0210974 56.3221682,7.36043874 56.2154147,3.66809835 L80.6839336,11.5676068 C81.04609,11.6707755 81.3067299,11.8720355 81.1381398,12.2962861 L73.0403791,30.9334559 C70.9937322,35.6442819 72.602891,41.1118133 76.8667891,43.9343284 L80.8422512,46.5657378 C81.553673,47.0366985 81.9784716,47.8299597 81.9784716,48.6880059 L81.9784716,52.9378225 Z" id="Shape"></path>
                </g>
            </g>
        </g>
    </g>
</svg>