<?xml version="1.0" encoding="UTF-8"?>
<svg width="105px" height="106px" viewBox="0 0 105 106" version="1.1" xmlns="http://www.w3.org/2000/svg" xmlns:xlink="http://www.w3.org/1999/xlink">
    <!-- Generator: Sketch 58 (84663) - https://sketch.com -->
    <title>004-24-hours</title>
    <desc>Created with Sketch.</desc>
    <g id="Page-1" stroke="none" stroke-width="1" fill="none" fill-rule="evenodd">
        <g id="woodland_outdoor" transform="translate(-758.000000, -3280.000000)" fill="#B9C4BD" fill-rule="nonzero">
            <g id="s4" transform="translate(381.000000, 3219.000000)">
                <g id="004-24-hours" transform="translate(377.000000, 61.000000)">
                    <path d="M101.462397,33.8920349 C101.249253,33.3351258 100.718699,32.9679762 100.127311,32.9681393 L98.1627447,32.9681393 C98.0925967,32.9679012 98.0225357,32.9731507 97.9531911,32.9838406 L87.5573636,32.9259938 L87.5491779,32.9259938 C87.0471072,32.9259714 86.581713,33.1914599 86.3226856,33.625658 C86.0636582,34.059856 86.0488537,34.5993067 86.2836701,35.0473176 C95.0808424,51.8895257 90.3686985,72.6937018 75.1953386,84.0024443 C60.0219788,95.3111869 38.9406571,93.7309443 25.5880498,80.2839132 C12.2354424,66.8368821 10.6184282,45.5582764 21.78299,30.2123873 C32.9475518,14.8664982 53.543404,10.058353 70.2479015,18.8981512 L67.9436295,21.2244179 C67.3846817,21.7890995 67.3846817,22.7042066 67.9436295,23.2688882 L73.2905229,28.6676449 C73.5567614,28.9367584 73.9173447,29.0890789 74.2940886,29.0915791 L91.5577107,29.2072726 L91.5675336,29.2072726 C91.949028,29.2068393 92.3146299,29.0529735 92.583464,28.7797123 C92.8522982,28.506451 93.0022072,28.1363166 93.0000295,27.7511867 L92.8846112,10.3227803 C92.8819198,9.9427272 92.7310559,9.57903841 92.4646853,9.31046174 L87.117792,3.91170502 C86.5495949,3.36864158 85.6600306,3.36864158 85.0918335,3.91170502 L80.7280416,8.31797638 C58.9818094,-5.68570901 30.3801326,-1.66586762 13.2496141,17.8017761 C-3.8809044,37.2694199 -4.46450892,66.4166225 11.8727467,86.5672339 C28.2100024,106.717845 56.6274056,111.901259 78.9164272,98.7961891 C101.205449,85.6911189 110.761874,58.1805839 101.462397,33.8920349 L101.462397,33.8920349 Z M52.6044633,102.920608 C31.3808918,102.932011 12.5095538,89.2894558 5.68487971,69.0012662 C-1.13979441,48.7130766 5.599605,26.2901633 22.4409684,13.2514431 C39.2823319,0.212722952 62.481122,-0.542752942 80.1198448,11.3731124 C80.688168,11.7578303 81.4466539,11.6830578 81.9305196,11.1946138 L86.105222,6.98006315 L90.0237123,10.9367825 L90.1252148,26.3074965 L74.8998297,26.2058515 L70.9813394,22.2491322 L73.6130391,19.5923125 C73.9263831,19.2762661 74.0771807,18.8315975 74.0214533,18.3879896 C73.9657259,17.9443816 73.7097496,17.5517934 73.328177,17.324719 C55.9169214,7.00351401 33.6512585,11.0443721 20.8908047,26.841255 C8.13035093,42.6381378 8.68893889,65.4696877 22.2063229,80.6113351 C35.7237069,95.7529826 58.1598238,98.6792062 75.0451276,87.5028198 C91.9304314,76.3264334 98.2182581,54.387825 89.8534499,35.8356865 L98.1512848,35.8819639 C98.2233189,35.8720473 98.3035386,35.8761792 98.3780284,35.8654362 L99.1352048,35.8654362 C104.666553,51.1882117 102.440278,68.2721367 93.1715377,81.6292588 C83.9027975,94.986381 68.7588515,102.93457 52.6044633,102.920608 Z" id="Shape"></path>
                    <path d="M69.6017188,64 C69.972631,64.0002202 70.3284125,63.8471907 70.590687,63.5746227 C70.8529616,63.3020547 71.0002119,62.9323099 71,62.5468406 L71,43.4531592 C71,42.6506015 70.3739681,42 69.6017188,42 C68.8294696,42 68.2034379,42.6506015 68.2034379,43.4531592 L68.2034379,51.5468407 L58.8061909,51.5468407 L62.8564115,44.1730958 C63.1039067,43.7223133 63.101194,43.1685539 62.8492955,42.7204135 C62.5973969,42.2722732 62.1345818,41.9978349 61.6351881,42.000477 C61.1357944,42.0031191 60.6756919,42.2824401 60.4281968,42.7332226 L55.1842437,52.2825544 C54.9368813,52.7322535 54.938711,53.2848307 55.1890456,53.7327499 C55.4393802,54.1806692 55.9003217,54.4561204 56.3987506,54.4556502 L68.2034379,54.4556502 L68.2034379,62.5493317 C68.20432,63.3511064 68.8302226,64.0004587 69.6017188,64 Z" id="Path"></path>
                    <path d="M49.6005646,63.9975089 C50.3727768,63.9975089 50.9987784,63.3469811 50.9987784,62.5445143 C50.9987784,61.7420475 50.3727768,61.0915196 49.6005646,61.0915196 L37.7964447,61.0915196 L37.7964447,59.0307581 C37.7943902,58.1370511 38.2750473,57.3177227 39.0404554,56.9102162 L48.236707,51.9941126 C50.326984,50.8773231 51.4097005,48.4185361 50.8565036,46.0447048 C50.3033067,43.6708734 48.2580448,41.9992672 45.9076824,42 L36.3998289,42 C36.0289345,41.9997798 35.6731701,42.1527919 35.4109082,42.4253291 C35.1486463,42.6978663 35.001403,43.0675692 35.0016151,43.4529949 L35.0016151,48.0261918 C35.0016151,48.8286585 35.6276167,49.4791864 36.3998289,49.4791864 C37.172041,49.4791864 37.7980426,48.8286585 37.7980426,48.0261918 L37.7980426,44.9059895 L45.9076824,44.9059895 C46.9664663,44.906569 47.8874129,45.6598745 48.1366561,46.7292204 C48.3858994,47.7985664 47.8987236,48.9062987 46.9575411,49.4102729 L37.7612896,54.3296977 C36.0622475,55.2324174 34.9950637,57.0502582 35,59.0332489 L35,62.5470051 C34.999805,62.9324308 35.1470483,63.3021338 35.4093103,63.5746709 C35.6715722,63.8472081 36.0273366,64.0002202 36.3982309,64 L49.6005646,63.9975089 Z" id="Path"></path>
                    <path d="M52.5,29 C52.8978951,29.0002233 53.2795579,28.8450585 53.5609116,28.5686872 C53.8422653,28.2923159 54.0002273,27.9174118 54,27.5265637 L54,20.473436 C54,19.6596798 53.3284274,19 52.5,19 C51.6715745,19 51,19.6596798 51,20.473436 L51,27.5248798 C50.9993191,27.9160194 51.1570801,28.2913565 51.4384832,28.5680923 C51.7198863,28.8448281 52.1018095,29.000224 52.5,29 Z" id="Path"></path>
                    <path d="M52.5,87 C52.8978944,87.0002233 53.2795574,86.8450324 53.5609113,86.5686145 C53.8422652,86.2921967 54.0002273,85.9172294 54,85.5263156 L54,78.4736842 C54,77.6597909 53.328427,77 52.5,77 C51.671573,77 51,77.6597909 51,78.4736842 L51,85.5263156 C50.9997727,85.9172294 51.1577348,86.2921967 51.4390887,86.5686145 C51.7204426,86.8450324 52.1021056,87.0002233 52.5,87 Z" id="Path"></path>
                    <path d="M33.4610631,35.5639289 C34.0413826,36.1448593 34.9828366,36.1454295 35.5638595,35.5652024 C36.1448824,34.9849753 36.1454526,34.0436711 35.5651332,33.4627407 L30.5367624,28.4351703 C29.9564429,27.8549432 29.0155591,27.8549432 28.4352396,28.4351703 C27.8549201,29.0153974 27.8549201,29.9561314 28.4352396,30.5363586 L33.4610631,35.5639289 Z" id="Path"></path>
                    <path d="M75.4625248,77.5647487 C75.8380261,77.9401305 76.3853313,78.0867338 76.8982757,77.9493345 C77.4112201,77.8119352 77.8118753,77.4114076 77.9493183,76.8986265 C78.0867614,76.3858454 77.9401114,75.8387145 77.56461,75.4633327 L72.5374413,70.4352174 C71.9569665,69.8549275 71.0158309,69.8549275 70.4353561,70.4352175 C69.8548813,71.0155075 69.8548813,71.9563434 70.435356,72.5366334 L75.4625248,77.5647487 Z" id="Path"></path>
                    <path d="M29.488208,78 C29.8820671,78.0004014 30.2598889,77.8439914 30.538252,77.5653039 L35.5652206,72.5374409 C35.9405168,72.161623 36.086844,71.6140991 35.9490821,71.1011162 C35.8113202,70.5881334 35.4103985,70.1876258 34.8973404,70.0504609 C34.3842823,69.913296 33.8370335,70.0603124 33.4617373,70.4361304 L28.4347686,75.4639934 C28.0101192,75.8890183 27.8832242,76.5280204 28.113242,77.0830975 C28.3432598,77.6381745 28.8849043,78 29.4856614,78 L29.488208,78 Z" id="Path"></path>
                    <path d="M27.5263158,52 L20.4736842,52 C19.6597909,52 19,52.6715729 19,53.5 C19,54.3284271 19.6597909,55 20.4736842,55 L27.5263158,55 C28.3402091,55 29,54.3284271 29,53.5 C29,52.6715729 28.3402091,52 27.5263158,52 L27.5263158,52 Z" id="Path"></path>
                    <path d="M78.473064,55 L85.526936,55 C86.3404868,55 87,54.3284271 87,53.5 C87,52.6715729 86.3404868,52 85.526936,52 L78.473064,52 C77.6595132,52 77,52.6715729 77,53.5 C77,54.3284271 77.6595132,55 78.473064,55 Z" id="Path"></path>
                </g>
            </g>
        </g>
    </g>
</svg>