<?xml version="1.0" encoding="UTF-8"?>
<svg width="116px" height="103px" viewBox="0 0 116 103" version="1.1" xmlns="http://www.w3.org/2000/svg" xmlns:xlink="http://www.w3.org/1999/xlink">
    <!-- Generator: Sketch 58 (84663) - https://sketch.com -->
    <title>003-lotus</title>
    <desc>Created with Sketch.</desc>
    <g id="Page-1" stroke="none" stroke-width="1" fill="none" fill-rule="evenodd">
        <g id="woodland_aboutus" transform="translate(-1350.000000, -2488.000000)" fill="#B9C4BD" fill-rule="nonzero">
            <g id="s4" transform="translate(381.000000, 2427.000000)">
                <g id="003-lotus" transform="translate(969.000000, 61.000000)">
                    <path d="M115.999996,24.9404272 C115.999996,24.064582 115.289736,23.3546941 114.414055,23.354194 L112.374993,23.354194 C107.220199,23.353995 102.090079,24.0659159 97.1300577,25.4697759 C96.7538865,20.3294835 95.668482,15.2659607 93.9047145,10.4232212 L93.2078083,8.50614516 C92.9074715,7.68314432 91.9974877,7.25889269 91.1741837,7.55803093 L89.2583715,8.25597352 C82.9343405,10.5477416 77.0784839,13.9680576 71.9752807,18.3507614 C69.1922031,12.221846 65.3264614,6.64538194 60.5637827,1.88928679 L59.1219392,0.447174237 C58.4927578,-0.149058079 57.507246,-0.149058079 56.8780646,0.447174237 L55.4371274,1.88928679 C50.6741858,6.64535818 46.808142,12.2218152 44.0247231,18.3507614 C38.9215911,13.9677349 33.0657301,10.5471093 26.7416323,8.25506711 L24.8258201,7.55712451 C24.0024924,7.25744588 23.0921337,7.68187231 22.7921955,8.50523874 L22.0952894,10.4223148 C20.3315218,15.2650543 19.2461173,20.3285771 18.8699462,25.4688695 C13.9098818,24.0653159 8.77976305,23.3537001 3.62501129,23.354194 L1.58594915,23.354194 C0.710267375,23.3546941 5.95424544e-06,24.064582 5.95424544e-06,24.9404272 L5.95424544e-06,26.9798699 C-0.00667885168,41.4566367 5.61558119,55.3686386 15.6781342,65.7746011 C10.4165173,68.0005098 5.63680388,71.2265719 1.60407414,75.2738717 L0.464918089,76.4177724 C0.167294869,76.7149806 5.95424544e-06,77.118364 5.95424544e-06,77.5390127 C5.95424544e-06,77.9596614 0.167294869,78.3630447 0.464918089,78.6602529 L1.60407414,79.7969023 C13.3960653,91.6671571 30.8622789,95.8919635 46.7742851,90.7228764 C49.1754609,94.8128041 52.0860397,98.581303 55.4362211,101.937998 C56.1160457,102.617985 57.0381068,103 57.9995488,103 C58.9609908,103 59.8830518,102.617985 60.5628765,101.937998 C63.9138095,98.581964 66.824466,94.8133647 69.2248125,90.7228764 C85.1370972,95.8921187 102.603653,91.6673143 114.39593,79.7969023 L115.535086,78.6566273 C115.832709,78.3594191 115.999996,77.9560357 115.999996,77.535387 C115.999996,77.1147383 115.832709,76.7113549 115.535086,76.4141468 L114.39593,75.2738717 C110.3636,71.2249459 105.58386,67.9973265 100.32187,65.770069 C110.383332,55.3652332 116.005506,41.4550689 115.999996,26.9798699 L115.999996,24.9404272 Z M90.3431526,11.2335598 L90.76909,11.0785621 L90.9240587,11.5045791 C92.6711235,16.3111587 93.7090963,21.3465717 94.0053082,26.452334 C87.7007023,28.6481914 81.8413364,31.9580354 76.7059049,36.2244368 C76.2383241,31.1632577 75.0796326,26.1900186 73.2621555,21.4434629 C78.2522971,16.9812125 84.0502835,13.5155554 90.3431526,11.2335598 L90.3431526,11.2335598 Z M57.6800957,4.1326737 L58.0000019,3.81361423 L58.3208144,4.13448654 C63.2863422,9.08742523 67.2134214,14.9819168 69.8718749,21.4724683 C69.888376,21.5226581 69.9074322,21.5719713 69.9289686,21.6202146 C72.4804944,27.9267314 73.7877744,34.6674973 73.7789101,41.4707897 C73.816605,55.4798439 68.2501801,68.9219818 58.3199081,78.8016543 L58.0000019,79.1216202 L57.6791895,78.8016543 C42.6951833,63.7942154 38.1242952,41.2851794 46.0674102,21.6202146 C46.0889467,21.5719713 46.1080028,21.5226581 46.124504,21.4724683 C48.7838091,14.980739 52.7124941,9.08553313 57.6800957,4.1326737 L57.6800957,4.1326737 Z M25.0759451,11.5045791 L25.2309138,11.0785621 L25.6568512,11.2335598 C31.948757,13.5158666 37.7457956,16.9815088 42.7351295,21.4434629 C40.9176525,26.1900186 39.758961,31.1632577 39.2913801,36.2244368 C34.1556763,31.9579415 28.295996,28.6480933 21.9910706,26.452334 C22.2884487,21.346391 23.3276437,16.3109729 25.0759451,11.5045791 L25.0759451,11.5045791 Z M3.17188637,26.5266442 L3.62501129,26.5266442 C16.7377622,26.5163653 29.3813935,31.4058208 39.0765989,40.2362471 C39.0675364,40.6468548 39.0457864,41.0520241 39.0457864,41.467164 C39.0106235,55.6911439 44.430179,69.3870854 54.1883151,79.7343594 C25.7576316,78.7511243 3.20758671,55.4328298 3.17188637,26.9798699 L3.17188637,26.5266442 Z M3.84704251,77.5580475 L3.82891751,77.5399191 L3.84704251,77.5217907 C7.9096065,73.4458269 12.7846185,70.2709804 18.154915,68.2038039 C28.3916409,77.633428 41.785128,82.8914601 55.7017523,82.9439889 C53.0341259,84.6939343 50.1735069,86.1301375 47.17666,87.2240992 C47.0128812,87.2529082 46.8549192,87.3083277 46.7090351,87.388161 C46.6965588,87.3952659 46.684732,87.4034553 46.6736914,87.4126343 C31.69068,92.6426251 15.0364302,88.8086518 3.84704251,77.5535154 L3.84704251,77.5580475 Z M58.3199081,99.6946112 C58.2458666,99.7978792 58.1266017,99.8591253 57.9995488,99.8591253 C57.8724959,99.8591253 57.7532309,99.7978792 57.6791895,99.6946112 C54.6550593,96.6679453 52.0099551,93.284855 49.8020658,89.6197645 C52.6794936,88.4440146 55.4269081,86.9722363 58.0000019,85.2281647 C60.5728886,86.9725791 63.3203397,88.4443771 66.197938,89.6197645 C63.9899589,93.2850372 61.3445312,96.6681519 58.3199081,99.6946112 L58.3199081,99.6946112 Z M112.171086,77.535387 L112.152961,77.5535154 C100.963924,88.8079374 84.3106054,92.6418588 69.328125,87.4126343 C69.3154375,87.405383 69.3054687,87.3954124 69.2927812,87.3890675 C69.1471261,87.3101667 68.9899144,87.2547958 68.8269688,87.2250056 C65.8288747,86.1309007 62.9670373,84.6943923 60.2982515,82.9439889 C74.2149975,82.8912129 87.6085,77.6328514 97.8450888,68.2028975 C103.214986,70.2687389 108.089967,73.4420208 112.152961,77.5163522 L112.171086,77.535387 Z M112.828117,26.9798699 C112.791912,55.4328177 90.2414713,78.7507069 61.8107825,79.733453 C71.5698053,69.386674 76.989783,55.6904849 76.9542174,41.4662576 C76.9542174,41.053837 76.9324674,40.6459484 76.9234049,40.2353406 C86.6187467,31.4052437 99.2623627,26.5161174 112.374993,26.5266434 L112.828117,26.5266434 L112.828117,26.9798699 Z" id="Shape"></path>
                </g>
            </g>
        </g>
    </g>
</svg>