<?xml version="1.0" encoding="UTF-8"?>
<svg width="136px" height="103px" viewBox="0 0 136 103" version="1.1" xmlns="http://www.w3.org/2000/svg" xmlns:xlink="http://www.w3.org/1999/xlink">
    <!-- Generator: Sketch 58 (84663) - https://sketch.com -->
    <title>001-wifi</title>
    <desc>Created with Sketch.</desc>
    <g id="Page-1" stroke="none" stroke-width="1" fill="none" fill-rule="evenodd">
        <g id="woodland_aboutus" transform="translate(-445.000000, -2488.000000)" fill="#B9C4BD" fill-rule="nonzero">
            <g id="s4" transform="translate(381.000000, 2427.000000)">
                <g id="001-wifi" transform="translate(64.000000, 61.000000)">
                    <path d="M135.367498,28.2581627 C98.2528698,-9.34907377 37.9986739,-9.42953813 0.786009176,28.0783495 C0.726699867,28.1382872 0.667390558,28.1982249 0.608081249,28.2581627 C-0.223061537,29.1279441 -0.199229486,30.5141754 0.661432545,31.3541248 C1.50097071,32.1735476 2.83204494,32.1735476 3.6715831,31.3541248 C39.0990105,-4.53954917 96.6108956,-4.61317132 132.128235,31.1896381 C132.182669,31.2443758 132.236833,31.2993871 132.290997,31.3541248 C133.137035,32.212685 134.51144,32.2156956 135.360998,31.3606933 C136.210557,30.505691 136.213265,29.1167229 135.367498,28.2581627 Z" id="Path"></path>
                    <path d="M122.394498,40.402299 C107.871083,26.0199438 88.1042992,17.9532366 67.4999789,18 C46.8956587,17.9532366 27.1288751,26.0199438 12.6054597,40.402299 C11.7779001,41.2455883 11.8016294,42.5895972 12.658581,43.4039632 C13.4944999,44.1984277 14.8198357,44.1984277 15.6557545,43.4039632 C44.2382458,15.2278041 90.6204149,15.1877359 119.253331,43.3145395 C119.283802,43.3442589 119.314002,43.3742437 119.344203,43.4039632 C120.201155,44.2185945 121.566669,44.1952435 122.394498,43.3519541 C123.201834,42.5290969 123.201834,41.2248908 122.394498,40.402299 Z" id="Path"></path>
                    <path d="M110.367063,51.386998 C99.032369,40.2222772 83.5933233,33.9602319 67.5000508,34 C51.4067784,33.9602319 35.9677327,40.2222772 24.6330387,51.386998 C23.7876349,52.2147396 23.7892596,53.5555858 24.6362882,54.381475 C25.4833168,55.2073643 26.8554056,55.2060412 27.7005387,54.3782995 C49.6152371,32.8980341 85.1996447,32.8459033 107.180145,54.2616007 C107.219951,54.3005003 107.259757,54.3393999 107.299563,54.3782995 C108.144967,55.2060412 109.516785,55.2073643 110.363813,54.381475 C111.210842,53.5553211 111.212196,52.2147396 110.367063,51.386998 Z" id="Path"></path>
                    <path d="M98.3867512,64.4121422 C90.21529,56.4434532 79.0932433,51.9739165 67.500097,52 C55.9069507,51.9739165 44.784904,56.4434532 36.6134427,64.4121422 C35.775022,65.2531243 35.7990549,66.5931915 36.6669705,67.4055939 C37.5135843,68.1978848 38.8558767,68.1978848 39.7027636,67.4055939 C55.0256531,52.5298962 79.8926105,52.5071383 95.2447218,67.3545211 C95.2622003,67.3714571 95.2799519,67.3883932 95.2974304,67.4055939 C96.165346,68.2179964 97.5483305,68.1947093 98.3867512,67.3537272 C99.2044163,66.5333859 99.2044163,65.2324835 98.3867512,64.4121422 Z" id="Path"></path>
                    <path d="M85.3887529,76.4326454 C85.3714648,76.4153003 85.3539066,76.3984809 85.3360783,76.3816615 C80.4773205,71.6451545 73.8781404,68.9884742 66.99992,69 C60.1216997,68.9884742 53.5225196,71.6451545 48.6637618,76.3816615 C47.8031401,77.1861029 47.7758574,78.5169397 48.6027133,79.3542315 C49.4295692,80.1915234 50.7974877,80.2180666 51.6581094,79.4136251 C51.6759377,79.3970685 51.6934959,79.3799863 51.710784,79.3626413 C60.1565459,71.1516096 73.8432941,71.1516096 82.2890561,79.3626413 C83.1207743,80.1954655 84.4889629,80.2143873 85.3449925,79.4052154 C86.201022,78.5960435 86.2204711,77.2654696 85.3887529,76.4326454 Z" id="Path"></path>
                    <path d="M74.3672428,87.5708483 C74.3649928,87.5685882 74.363024,87.5666107 74.360774,87.5643507 C70.8035106,84.1452164 65.1964894,84.1452164 61.639226,87.5643507 C58.1227439,91.0928136 58.1199314,96.8168902 61.6327572,100.349026 C65.145583,103.881161 70.844292,103.883986 74.360774,100.355523 C77.8772561,96.8267778 77.8800686,91.1029837 74.3672428,87.5708483 Z M68,98.473488 C65.5145844,98.473488 63.499983,96.4499187 63.499983,93.9534394 C63.499983,91.45696 65.5145844,89.4333908 68,89.4333908 C70.4854156,89.4333908 72.500017,91.45696 72.500017,93.9534394 C72.500017,96.4499187 70.4851344,98.473488 68,98.473488 Z" id="Shape"></path>
                </g>
            </g>
        </g>
    </g>
</svg>